<svg id="Layer_1" data-name="Layer 1" xmlns="http://www.w3.org/2000/svg" viewBox="0 0 595.28 143.89"><defs><style>.cls-1{fill:#006a6d;}.cls-2{font-size:76.74px;fill:#333;font-family:Manrope-Bold, Manrope;font-weight:700;}.cls-3,.cls-4{font-family:Manrope-Regular, Manrope;font-weight:400;}.cls-3{letter-spacing:0em;}.cls-4{letter-spacing:0em;}.cls-5{fill:none;stroke:#fff;stroke-miterlimit:10;stroke-width:2.84px;}</style></defs><path class="cls-1" d="M86.67,83.26s0,.07,0,.11h0S86.68,83.29,86.67,83.26Z"/><path class="cls-1" d="M86.27,82.65l0,.12,0-.12Z"/><path class="cls-1" d="M84.3,92.76a.32.32,0,0,0,.1.13.32.32,0,0,1-.1-.13.17.17,0,0,1,0-.13A.17.17,0,0,0,84.3,92.76Z"/><path class="cls-1" d="M86.39,83.8l-.11,0,.11,0Z"/><path class="cls-1" d="M91,67.7a.53.53,0,0,1,0-.17A.53.53,0,0,0,91,67.7Z"/><path class="cls-1" d="M61.86,106.11c.08,0,.19,0,.17.15h0C62.05,106.13,61.94,106.12,61.86,106.11Z"/><path class="cls-1" d="M81.46,4.74a66.21,66.21,0,1,0,66.2,66.2A66.2,66.2,0,0,0,81.46,4.74Zm37.72,97.33a6.43,6.43,0,0,1-2.64.69c-.87.06-1.75,0-2.63,0-.16,0-.35,0-.43.14s.1.29.2.4a30.21,30.21,0,0,1,2.58,3,4.15,4.15,0,0,1,.9,1.74,1.47,1.47,0,0,1,0,1.88,2.17,2.17,0,0,1-1.09.76,12.23,12.23,0,0,1-2.14.55,1.64,1.64,0,0,1-.76.09,6.61,6.61,0,0,1-1.54,0c-1,.13-1,.13-.39.93a9.64,9.64,0,0,1,2,3.94v.27c-.12.68-.66.79-1.19.92l-.28,0h0l-1.26,0a1.32,1.32,0,0,1-.94,0l-1.82,0a2.65,2.65,0,0,1-1.25-.09h-.93c.2.6,0,1.26.38,1.83.18.14.13.33.1.51a8.52,8.52,0,0,1,0,2.08c0,.07,0,.11-.07.1a2.13,2.13,0,0,1-2.51.82,15.88,15.88,0,0,1-2.62-1.28c-.59-.34-.76-.23-.78.47a3.59,3.59,0,0,1-.77,2.44,1.34,1.34,0,0,1-1.78.41,6,6,0,0,1-1.78-1.16A9.56,9.56,0,0,1,94,122.06a1.48,1.48,0,0,0-.78-.52.11.11,0,0,1-.09,0v0h0l0,.22a2.59,2.59,0,0,1-.8,1.63v0a1.86,1.86,0,0,1-1.1,1h0a.2.2,0,0,1-.25.09h-.42a1.73,1.73,0,0,1-1.23-.79h0a.33.33,0,0,1-.27-.27h0l-.15-.15a7.72,7.72,0,0,1-1.38-1.78h0c-.19-.08-.24-.27-.32-.43a1.66,1.66,0,0,0-1.71-1.07l-.33.09a3.56,3.56,0,0,1-1.24.52l-.29,0a1.35,1.35,0,0,1-1.7-.61c-.27-.42-.52-.86-.77-1.28h0a24.52,24.52,0,0,0-1.93-2.59,2.05,2.05,0,0,0-2.57-.51,1.62,1.62,0,0,1-2-.3l-1-.89a3.88,3.88,0,0,1-1.07-1l0,0a26.73,26.73,0,0,1-2-1.86l-.75-.62c-.1.72.42,1.34.07,2-.35-.45-.76-.86-1.14-1.29.38.43.79.84,1.14,1.29-.09.46-.35.31-.49.08A10.63,10.63,0,0,0,64,108.93c-.46-.2-.55-.5-.27-.93.11-.15.19-.32.28-.47-1.19-.15-2.39,0-3.58-.08a3.19,3.19,0,0,1-1.15-.09l-.51,0c-.19,0-.36-.08-.55-.1-.44,0-.89-.11-1-.62s.17-.83.46-1.15a14.85,14.85,0,0,1,4.22-3.07c0-.51-.44-.67-.74-.91a45.81,45.81,0,0,1-5.65-5.22c-.1-.12-.27-.2-.26-.39a.43.43,0,0,1-.3-.32c-.12,0-.16-.1-.17-.21A.34.34,0,0,1,54.5,95a.29.29,0,0,1-.22-.28l-.06-.13-.12-.14v0a.72.72,0,0,1-.44-.52h0l-.14-.15h0l-.13-.15h0A1,1,0,0,1,53,93h0l-.13-.15h0a20.9,20.9,0,0,1-2.9-5.2c-.16-.38-.28-.78-.42-1.17l-.07-.12-.05-.44A4.28,4.28,0,0,1,48.87,84l0-.3a.94.94,0,0,1-.24-.63c-.29-1.39-1.42-1.84-2.76-1.48-.51.13-1,.27-1.53.43s-1,.35-1.54.56a5.33,5.33,0,0,1,.78-2.46,1.11,1.11,0,0,0,.07-1.2c-.69-1.29-.17-2.43.65-3.43a9.11,9.11,0,0,1,5.42-3.32,6.63,6.63,0,0,1,3.58.4,9.23,9.23,0,0,1,2,1c.11.08.23.21.36.12s0-.29,0-.43A9.53,9.53,0,0,1,54.32,70c-.81-4.22,0-8,3.16-11.08,2.44-2.34,4.62-4.94,7-7.34C67.27,48.84,70,46,72.83,43.28c1.92-1.86,3.83-3.72,5.88-5.44A30.65,30.65,0,0,1,83,34.64c.76-.45,1.51-.84,2.27,0,.21.24.54.09.74-.11a16.17,16.17,0,0,0,1.62-1.7c3.26-4.42,6.48-8.88,9.9-13.19.61-.77,1.27-1.51,1.91-2.26.22-.26.51-.53.82-.3s0,.54-.1.79c-1,1.83-2.05,3.65-3.07,5.47l-.09.19c-.11.19-.33.44-.12.61s.42-.08.56-.24a25.9,25.9,0,0,1,3.89-3.19,7.16,7.16,0,0,1,.87-.56c.22-.12.49-.4.74-.16s0,.48-.11.7a15.6,15.6,0,0,1-1.58,2.59,1,1,0,0,0-.13.16c-.12.22-.42.43-.28.66s.46,0,.66-.07c.53-.19.68,0,.71.51a8.77,8.77,0,0,1-.71,3.2,38.39,38.39,0,0,1-1.68,4.45c-.06.13-.1.26-.24.32h0l-.14.27a.26.26,0,0,1-.14.28,2.68,2.68,0,0,1-.56,1.1h0c-.45.89-.9,1.79-1.36,2.68a.08.08,0,0,1,0,.09.25.25,0,0,1-.12.27.28.28,0,0,1-.13.28,1.16,1.16,0,0,1-.27.74,61.15,61.15,0,0,0-1.73,6.23q-.52,2.61-1,5.24L94,50a6.51,6.51,0,0,1-.42,2c0,.2,0,.39,0,.59a9.35,9.35,0,0,1-.53,3c0,.33,0,.66,0,1s.1.44-.11.61l0,.05a.49.49,0,0,1-.12.55c0,.15,0,.3,0,.44a.22.22,0,0,1-.08.28h0a1.58,1.58,0,0,1-1.4,1.2l-.15.16v.14a.12.12,0,0,1,0,.13V61c0,.14,0,.29,0,.44a2.26,2.26,0,0,1,.24,1.49,29.17,29.17,0,0,1,0,3.74,2.13,2.13,0,0,1-.24,1.38,11,11,0,0,1-.05,2.22,1.32,1.32,0,0,1-.22.82,4.92,4.92,0,0,1,0,1.27.19.19,0,0,1-.08.25A45.36,45.36,0,0,1,88.92,80a.79.79,0,0,1-.12.15h0a2.2,2.2,0,0,1-.4,1.11h0a.26.26,0,0,1-.13.28,5.14,5.14,0,0,1-.84,2h0a7.12,7.12,0,0,1-1.11,2.22h0a.62.62,0,0,1-.29.54h0a.42.42,0,0,1-.28.41l-.05.14a1.72,1.72,0,0,1-.5.84h0a1.71,1.71,0,0,1-.55.83h0a.63.63,0,0,1-.29.55h0a.71.71,0,0,1-.29.55h0a3.14,3.14,0,0,1-.42,1.1c0,.28,0,.56,0,.84a1.48,1.48,0,0,0,1,1c1.86.51,3.47-.46,5.16-.91s3.19-1,4.78-1.54c.17,0,.34-.16.53-.1h0a35,35,0,0,1,3.57-1.36L99,88.4a21,21,0,0,1,2.35-1h0A14.81,14.81,0,0,1,105.67,86l.42,0a2.2,2.2,0,0,1,1.53-.23h0l.17,0h0a2.2,2.2,0,0,1,1.33-.29,13.4,13.4,0,0,1,2.37,0,.86.86,0,0,1,.65.09c.43,0,.86.07,1.29.16a1.27,1.27,0,0,1,.84,2,10.32,10.32,0,0,1-2.55,2.38c.28.43.83.23,1.14.53a2.49,2.49,0,0,1,1,.06l.3.06a8.76,8.76,0,0,1,4.2,1.73c.88.8.84,1.45-.13,2.2a10.26,10.26,0,0,1-3.5,1.54,10.83,10.83,0,0,1-2.28.54c.25.25.58.14.85.24a1.85,1.85,0,0,1,1,.28c.24,0,.49-.09.69.12l.16.14.26.12a6,6,0,0,1,4.41,2.07A1.45,1.45,0,0,1,119.18,102.07Z"/><path class="cls-1" d="M54.77,95.33a.29.29,0,0,0-.13-.29c0-.12,0-.2-.11-.23s.11.11.11.23a.29.29,0,0,1,.13.29Z"/><path class="cls-1" d="M64,106.78a.09.09,0,0,1-.1.07A.09.09,0,0,0,64,106.78Z"/><path class="cls-1" d="M82.44,120.21c.21-.13.1-.39.15-.59,0,.2.06.46-.15.59a.53.53,0,0,0,.49.38A.53.53,0,0,1,82.44,120.21Z"/><path class="cls-1" d="M93.72,50.68a.54.54,0,0,0,0,.11c.06.26-.17.49-.25.74.08-.25.31-.48.25-.74A.54.54,0,0,1,93.72,50.68Z"/><text class="cls-2" transform="translate(167.4 98.23)">Alumni<tspan class="cls-3" x="259.49" y="0">-</tspan><tspan class="cls-4" x="291.72" y="0">n</tspan><tspan class="cls-3" x="337.03" y="0">et</tspan></text><circle class="cls-5" cx="81.46" cy="70.94" r="62.65"/></svg>